<svg width="158" height="29" viewBox="0 0 158 29" fill="none" xmlns="http://www.w3.org/2000/svg">
<path d="M79.416 0C82.3715 0 85.0114 1.33987 86.5879 3.34766L86.3506 3.58398C84.8926 1.65236 82.2928 0.312573 79.4561 0.3125C75.3191 0.3125 72.051 2.83381 72.0508 6.14453C72.0538 9.9656 75.8744 11.0686 79.7744 12.0527C84.1879 13.1553 88.875 14.14 88.875 20.4854C88.8747 25.2115 84.6585 28.9961 79.4189 28.9961C76.1478 28.996 73.2349 27.4985 71.54 25.2539L71.7773 25.0166C73.3538 27.1823 76.3094 28.6797 79.3408 28.6797C83.5172 28.6795 87.1015 26.0799 87.1016 22.3379C87.1016 17.8059 82.9638 16.7824 78.8662 15.7588C74.7292 14.6957 70.6318 13.5923 70.6318 7.87891C70.632 3.54465 74.532 0.000153392 79.416 0ZM41.4775 13.3135C43.0449 13.3135 44.445 14.0247 45.2803 15.0908L45.1562 15.2148C44.3817 14.1912 43.0025 13.4805 41.499 13.4805C39.3061 13.4805 37.5716 14.8168 37.5713 16.5723C37.5713 18.6043 39.6005 19.1875 41.6689 19.71C44.0109 20.2962 46.4951 20.8191 46.4951 24.1816C46.4951 26.6906 44.2598 28.6953 41.4805 28.6953C39.7461 28.6952 38.1998 27.9027 37.3008 26.709L37.4258 26.584C38.2611 27.7322 39.8286 28.5283 41.4385 28.5283C43.6526 28.5282 45.5535 27.1493 45.5537 25.1631C45.5537 22.7606 43.3612 22.2165 41.1865 21.6729C38.9935 21.1079 36.8184 20.5245 36.8184 17.4932C36.8184 15.1938 38.8866 13.3135 41.4775 13.3135ZM34.623 25.5V13.6504H34.832V28.4883H34.6016L24.2988 14.4463V28.3643H24.0889V13.6504H26.0117L34.623 25.5ZM141.494 25.5V13.6504H141.704V28.4883H141.473L131.17 14.4463V28.3643H130.96V13.6504H132.883L141.494 25.5ZM19.4658 28.3643H16V0.628906H19.4658V28.3643ZM68.7578 28.3643H66.792L64.9541 23.5166H59.1045L57.2451 28.3643H57.0332L62.8008 13.3164H62.9893L68.7578 28.3643ZM109.017 22.3682L112.904 13.6533H113.156L109.099 22.7412V28.3643H107.261V22.9941L103.103 13.6533H105.128L109.017 22.3682ZM116.456 28.1943H123.73V28.3643H114.618V13.6504H116.456V28.1943ZM127.722 28.3643H125.884V13.6504H127.722V28.3643ZM58.0352 13.8174H53.1631V28.3613H51.3252V13.8174H46.4561V13.6504H58.0352V13.8174ZM101.913 13.8174H97.041V28.3613H95.2031V13.8174H90.334V13.6504H101.913V13.8174ZM59.1621 23.3496H64.8662L61.9629 16.0566L59.1621 23.3496Z" fill="black"/>
</svg>
